<svg style="display: none">
	<symbol id="logo" viewbox="0 0 164 36">
		<path d="M163.881 27.119v7.392h-21.264V.911h21.022v7.392h-13.29v5.568h12.082v7.296h-12.082v5.952h13.532zm-39.871.576c1.707 0 3.262-.368 4.664-1.104 1.401-.736 2.456-1.744 3.165-3.024l6.67 3.84c-1.45 2.4-3.464 4.296-6.041 5.688-2.579 1.392-5.397 2.088-8.458 2.088-5.059 0-9.255-1.672-12.59-5.016-3.334-3.344-5.002-7.496-5.002-12.456 0-4.96 1.668-9.112 5.002-12.456 3.335-3.344 7.531-5.016 12.59-5.016 3.028 0 5.831.696 8.409 2.088 2.577 1.392 4.607 3.288 6.09 5.688l-6.67 3.84c-.741-1.312-1.805-2.328-3.189-3.048-1.386-.72-2.933-1.08-4.64-1.08-2.996 0-5.389.912-7.177 2.736-1.788 1.824-2.682 4.24-2.682 7.248s.894 5.424 2.682 7.248c1.788 1.824 4.181 2.736 7.177 2.736zM93.853.911h7.733v33.6h-7.733V.911zm-24.26 33.6L58.574.911h8.457l7.491 24.72L82.013.911h8.458l-11.019 33.6h-9.859zM35.376.911h21.023v7.392h-13.29v5.568h12.082v7.296H43.109v5.952h13.532v7.392H35.376V.911zm-21.264 33.6H.58V.911h13.532c4.671 0 8.578 1.608 11.72 4.824 3.141 3.216 4.712 7.208 4.712 11.976 0 4.768-1.571 8.76-4.712 11.976-3.142 3.216-7.049 4.824-11.72 4.824zm6.5-23.64c-1.66-1.712-3.826-2.568-6.5-2.568H8.313v18.816h5.799c2.674 0 4.84-.856 6.5-2.568 1.659-1.712 2.489-3.992 2.489-6.84s-.83-5.128-2.489-6.84z"/>
	</symbol>
	<symbol id="user" viewbox="0 0 13 12">
		<path d="M.032 12h12.937c-.163-2.643-2.074-4.837-4.671-5.543a3.47 3.47 0 0 0 1.687-2.972 3.485 3.485 0 0 0-6.97 0c0 1.264.68 2.361 1.688 2.972C2.106 7.163.194 9.357.032 12z"/>
	</symbol>
	<symbol id="compare" viewbox="0 0 10 10">
		<path d="M8 2h1.984v8H8zM0 3h1.984v7H0zm4-3h2v10H4z"/>
	</symbol>
	<symbol id="cart" viewbox="0 0 13 12">
		<path d="M11.864 3.017a.429.429 0 0 0-.327-.154H9.225V4.09c0 .563-.484 1.022-1.08 1.022-.594 0-1.078-.458-1.078-1.022V2.863H4.909V4.09c0 .563-.485 1.022-1.08 1.022-.595 0-1.078-.458-1.078-1.022V2.863H.438a.43.43 0 0 0-.327.154.472.472 0 0 0-.108.358l.776 7.134c.015.806.642 1.455 1.411 1.455h7.595c.77 0 1.396-.649 1.411-1.455l.776-7.134a.476.476 0 0 0-.108-.358z"/>
		<path d="M3.829 4.499c.239 0 .433-.184.433-.409V1.84c0-.632.672-1.022 1.295-1.022h1.079c.655 0 1.078.401 1.078 1.022v2.25c0 .225.194.409.431.409.239 0 .433-.184.433-.409V1.84C8.577.773 7.761 0 6.636 0H5.557c-1.19 0-2.159.826-2.159 1.84v2.25c0 .225.194.409.431.409z"/>
	</symbol>
</svg>